<svg width="23" height="23" viewBox="0 0 23 23" fill="none" xmlns="http://www.w3.org/2000/svg">
<path d="M22.0306 6.53061C21.961 6.60035 21.8783 6.65567 21.7872 6.69341C21.6962 6.73115 21.5986 6.75058 21.5 6.75058C21.4014 6.75058 21.3039 6.73115 21.2128 6.69341C21.1218 6.65567 21.039 6.60035 20.9694 6.53061L19.25 4.8103L12.5938 11.4666L11.5306 10.4062L18.1869 3.74999L16.4694 2.03061C16.3997 1.96093 16.3444 1.87821 16.3067 1.78716C16.269 1.69612 16.2496 1.59854 16.2496 1.49999C16.2496 1.40144 16.269 1.30386 16.3067 1.21282C16.3444 1.12177 16.3997 1.03905 16.4694 0.969365C16.6101 0.828634 16.801 0.749573 17 0.749573C17.0986 0.749573 17.1961 0.768983 17.2872 0.806695C17.3782 0.844407 17.4609 0.899682 17.5306 0.969365L22.0306 5.46936C22.1004 5.53902 22.1557 5.62174 22.1934 5.71278C22.2312 5.80383 22.2506 5.90143 22.2506 5.99999C22.2506 6.09855 22.2312 6.19615 22.1934 6.2872C22.1557 6.37824 22.1004 6.46096 22.0306 6.53061ZM7.25001 16.5C7.10159 16.5001 6.95647 16.4562 6.83302 16.3738C6.70958 16.2914 6.61335 16.1742 6.55654 16.0371C6.49973 15.9 6.48487 15.7491 6.51386 15.6035C6.54285 15.4579 6.61437 15.3243 6.71938 15.2194L11.5306 10.4062L8.31032 7.18874C8.02904 6.90765 7.64766 6.74975 7.25001 6.74975C6.85235 6.74975 6.47097 6.90765 6.18969 7.18874L0.939694 12.4387C0.799814 12.5777 0.68892 12.7431 0.613443 12.9253C0.537966 13.1075 0.499409 13.3028 0.500007 13.5V21C0.500007 21.3978 0.658042 21.7793 0.939347 22.0606C1.22065 22.342 1.60218 22.5 2.00001 22.5H9.50001C9.69706 22.5006 9.89228 22.4621 10.0743 22.3866C10.2563 22.3111 10.4215 22.2002 10.5603 22.0603L15.8103 16.8103C16.0914 16.529 16.2493 16.1476 16.2493 15.75C16.2493 15.3523 16.0914 14.971 15.8103 14.6897L12.5938 11.4694L7.78063 16.2806C7.71093 16.3502 7.62819 16.4055 7.53714 16.4431C7.4461 16.4807 7.34853 16.5001 7.25001 16.5Z" fill="#EBAD06"/>
</svg>
